<svg width="122" height="122" viewBox="0 0 122 122" fill="none" xmlns="http://www.w3.org/2000/svg">
<circle cx="61" cy="61" r="59.5" stroke="black" stroke-width="3"/>
<path d="M49.5258 98H69.2581V93.6512H73.6667V89.3024H60.4882V84.9536H56.1033V80.6047H51.7183V71.8837H47.3098V76.2559H42.9248V80.6047H38.5398V84.9536H29.7699V89.3024H45.1173V93.6512H49.5258V98ZM51.7183 71.8837H56.1033V67.5349H51.7183V71.8837ZM38.5398 71.8837H42.9248V54.4885H29.7699V50.1163H25.385V37.0698H21V58.8373H25.385V63.1861H38.5398V71.8837ZM25.385 37.0698H29.7699V32.721H25.385V37.0698ZM56.1033 67.5349H60.4882V63.1861H64.8732V58.8373H69.2581V37.0698H64.8732V28.3722H56.1033V24H34.1549V28.3722H29.7699V32.721H47.3098V37.0698H51.7183V41.4186H56.1033V67.5349ZM82.4366 98H91.2065V93.6512H100V84.9536H95.5915V89.3024H91.2065V32.721H95.5915V24H91.2065V28.3722H82.4366V32.721H73.6667V37.0698H78.0516V84.9536H73.6667V89.3024H78.0516V93.6512H82.4366V98Z" fill="black"/>
</svg>
