<svg width="122" height="122" viewBox="0 0 122 122" fill="none" xmlns="http://www.w3.org/2000/svg">
<circle cx="61" cy="61" r="59.5" stroke="black" stroke-width="3"/>
<path d="M89.1201 93.7862H93.4773V89.429H89.1201V93.7862ZM54.2387 98.1435H89.1201V93.7862H76.0483V89.429H67.3104V85.0717H62.9531V80.7145H54.2387V76.3572H49.8814V71.9766H45.5007V76.3572H36.7862V80.7145H32.429V85.0717H45.5007V89.429H49.8814V93.7862H54.2387V98.1435ZM49.8814 71.9766H54.2387V67.6193H49.8814V71.9766ZM28.0717 67.6193H41.1435V63.2621H28.0717V67.6193ZM23.7145 63.2621H28.0717V58.9048H23.7145V63.2621ZM41.1435 63.2621H45.5007V58.9048H41.1435V63.2621ZM93.4773 89.429H97.858V85.0717H102.215V80.7145H106.572V63.2621H102.215V58.9048H97.858V54.5476H89.1201V50.1669H84.7628V54.5476H76.0483V58.9048H67.3104V63.2621H89.1201V67.6193H93.4773V89.429ZM67.3104 32.7379H71.6911V28.3807H67.3104V32.7379ZM54.2387 67.6193H58.5959V63.2621H62.9531V58.9048H67.3104V32.7379H62.9531V28.3807H54.2387V24H28.0717V28.3807H23.7145V32.7379H19.3572V41.4524H15V54.5476H19.3572V58.9048H23.7145V50.1669H19.3572V45.8097H23.7145V37.0952H32.429V32.7379H45.5007V37.0952H49.8814V41.4524H54.2387V67.6193ZM89.1201 50.1669H97.858V45.8097H102.215V41.4524H97.858V32.7379H93.4773V28.3807H89.1201V24H71.6911V28.3807H80.4056V37.0952H84.7628V45.8097H89.1201V50.1669Z" fill="black"/>
</svg>
