<svg width="122" height="122" viewBox="0 0 122 122" fill="none" xmlns="http://www.w3.org/2000/svg">
<circle cx="61" cy="61" r="59.5" stroke="black" stroke-width="3"/>
<path d="M54.4224 87.0076H58.4669V83.0114H54.4224V87.0076ZM34.1781 95H50.3778V91.0038H54.4224V87.0076H46.3116V83.0114H42.2671V79.0152H30.1335V83.0114H22.0445V87.0076H34.1781V95ZM30.1335 71.0013H42.2671V67.0051H30.1335V71.0013ZM26.089 67.0051H30.1335V63.0088H26.089V67.0051ZM42.2671 67.0051H46.3116V63.0088H42.2671V67.0051ZM22.0445 63.0088H26.089V59.0126H22.0445V63.0088ZM86.8002 95H94.911V91.0038H103V87.0076H94.911V79.0152H90.8447V67.0051H86.8002V63.0088H82.7557V59.0126H74.6667V63.0088H70.6222V67.0051H74.6667V71.0013H78.7112V87.0076H82.7557V91.0038H86.8002V95ZM82.7557 59.0126H86.8002V55.0164H82.7557V59.0126ZM18 59.0126H22.0445V43.0063H18V59.0126ZM66.5559 39.0101H70.6222V35.0139H66.5559V39.0101ZM58.4669 83.0114H62.5114V75.019H66.5559V39.0101H62.5114V35.0139H58.4669V31.0177H50.3778V27H34.1781V31.0177H26.089V35.0139H22.0445V43.0063H26.089V39.0101H46.3116V43.0063H50.3778V47.0025H54.4224V55.0164H58.4669V83.0114ZM86.8002 55.0164H90.8447V50.9987H98.9555V47.0025H94.911V35.0139H90.8447V31.0177H82.7557V27H74.6667V31.0177H70.6222V35.0139H78.7112V39.0101H82.7557V50.9987H86.8002V55.0164Z" fill="black"/>
</svg>
